<mxfile host="app.diagrams.net" modified="2024-05-14T16:55:47.395Z" agent="Mozilla/5.0 (Windows NT 10.0; Win64; x64) AppleWebKit/537.36 (KHTML, like Gecko) Chrome/124.0.0.0 Safari/537.36 Edg/124.0.0.0" etag="O4d93Nhy9bxKUI7gdMkL" version="24.4.0" type="github">
  <diagram name="Page-1" id="c4acf3e9-155e-7222-9cf6-157b1a14988f">
    <mxGraphModel dx="1913" dy="884" grid="1" gridSize="10" guides="1" tooltips="1" connect="1" arrows="1" fold="1" page="1" pageScale="1" pageWidth="850" pageHeight="1100" background="none" math="0" shadow="0">
      <root>
        <mxCell id="0" />
        <mxCell id="1" parent="0" />
        <mxCell id="17acba5748e5396b-1" value="frame" style="shape=umlFrame;whiteSpace=wrap;html=1;rounded=0;shadow=0;comic=0;labelBackgroundColor=none;strokeWidth=1;fontFamily=Verdana;fontSize=10;align=center;" parent="1" vertex="1">
          <mxGeometry x="20" y="20" width="750" height="630" as="geometry" />
        </mxCell>
        <mxCell id="17acba5748e5396b-2" value="Procedimento" style="swimlane;html=1;fontStyle=0;childLayout=stackLayout;horizontal=1;startSize=26;fillColor=none;horizontalStack=0;resizeParent=1;resizeLast=0;collapsible=1;marginBottom=0;swimlaneFillColor=#ffffff;rounded=0;shadow=0;comic=0;labelBackgroundColor=none;strokeWidth=1;fontFamily=Verdana;fontSize=10;align=center;" parent="1" vertex="1">
          <mxGeometry x="580" y="264" width="150" height="166" as="geometry" />
        </mxCell>
        <mxCell id="17acba5748e5396b-3" value="Tipo Procedimento" style="text;html=1;strokeColor=none;fillColor=none;align=left;verticalAlign=top;spacingLeft=4;spacingRight=4;whiteSpace=wrap;overflow=hidden;rotatable=0;points=[[0,0.5],[1,0.5]];portConstraint=eastwest;" parent="17acba5748e5396b-2" vertex="1">
          <mxGeometry y="26" width="150" height="26" as="geometry" />
        </mxCell>
        <mxCell id="17acba5748e5396b-4" value="Quantidade" style="text;html=1;strokeColor=none;fillColor=none;align=left;verticalAlign=top;spacingLeft=4;spacingRight=4;whiteSpace=wrap;overflow=hidden;rotatable=0;points=[[0,0.5],[1,0.5]];portConstraint=eastwest;" parent="17acba5748e5396b-2" vertex="1">
          <mxGeometry y="52" width="150" height="26" as="geometry" />
        </mxCell>
        <mxCell id="17acba5748e5396b-6" value="Sala" style="text;html=1;strokeColor=none;fillColor=none;align=left;verticalAlign=top;spacingLeft=4;spacingRight=4;whiteSpace=wrap;overflow=hidden;rotatable=0;points=[[0,0.5],[1,0.5]];portConstraint=eastwest;" parent="17acba5748e5396b-2" vertex="1">
          <mxGeometry y="78" width="150" height="26" as="geometry" />
        </mxCell>
        <mxCell id="17acba5748e5396b-9" value="Técnico responsável" style="text;html=1;strokeColor=none;fillColor=none;align=left;verticalAlign=top;spacingLeft=4;spacingRight=4;whiteSpace=wrap;overflow=hidden;rotatable=0;points=[[0,0.5],[1,0.5]];portConstraint=eastwest;" parent="17acba5748e5396b-2" vertex="1">
          <mxGeometry y="104" width="150" height="26" as="geometry" />
        </mxCell>
        <mxCell id="17acba5748e5396b-10" value="Tipo Cirurgia" style="text;html=1;strokeColor=none;fillColor=none;align=left;verticalAlign=top;spacingLeft=4;spacingRight=4;whiteSpace=wrap;overflow=hidden;rotatable=0;points=[[0,0.5],[1,0.5]];portConstraint=eastwest;" parent="17acba5748e5396b-2" vertex="1">
          <mxGeometry y="130" width="150" height="26" as="geometry" />
        </mxCell>
        <mxCell id="17acba5748e5396b-20" value="Cadastro" style="swimlane;html=1;fontStyle=0;childLayout=stackLayout;horizontal=1;startSize=26;fillColor=none;horizontalStack=0;resizeParent=1;resizeLast=0;collapsible=1;marginBottom=0;swimlaneFillColor=#ffffff;rounded=0;shadow=0;comic=0;labelBackgroundColor=none;strokeWidth=1;fontFamily=Verdana;fontSize=10;align=center;" parent="1" vertex="1">
          <mxGeometry x="350" y="42" width="160" height="110" as="geometry" />
        </mxCell>
        <mxCell id="17acba5748e5396b-21" value="Nome:" style="text;html=1;strokeColor=none;fillColor=none;align=left;verticalAlign=top;spacingLeft=4;spacingRight=4;whiteSpace=wrap;overflow=hidden;rotatable=0;points=[[0,0.5],[1,0.5]];portConstraint=eastwest;" parent="17acba5748e5396b-20" vertex="1">
          <mxGeometry y="26" width="160" height="26" as="geometry" />
        </mxCell>
        <mxCell id="17acba5748e5396b-24" value="CPF" style="text;html=1;strokeColor=none;fillColor=none;align=left;verticalAlign=top;spacingLeft=4;spacingRight=4;whiteSpace=wrap;overflow=hidden;rotatable=0;points=[[0,0.5],[1,0.5]];portConstraint=eastwest;" parent="17acba5748e5396b-20" vertex="1">
          <mxGeometry y="52" width="160" height="26" as="geometry" />
        </mxCell>
        <mxCell id="17acba5748e5396b-26" value="Profissão" style="text;html=1;strokeColor=none;fillColor=none;align=left;verticalAlign=top;spacingLeft=4;spacingRight=4;whiteSpace=wrap;overflow=hidden;rotatable=0;points=[[0,0.5],[1,0.5]];portConstraint=eastwest;" parent="17acba5748e5396b-20" vertex="1">
          <mxGeometry y="78" width="160" height="26" as="geometry" />
        </mxCell>
        <mxCell id="17acba5748e5396b-30" value="Médico" style="swimlane;html=1;fontStyle=0;childLayout=stackLayout;horizontal=1;startSize=26;fillColor=none;horizontalStack=0;resizeParent=1;resizeLast=0;collapsible=1;marginBottom=0;swimlaneFillColor=#ffffff;rounded=0;shadow=0;comic=0;labelBackgroundColor=none;strokeWidth=1;fontFamily=Verdana;fontSize=10;align=center;" parent="1" vertex="1">
          <mxGeometry x="580" y="87" width="160" height="110" as="geometry" />
        </mxCell>
        <mxCell id="17acba5748e5396b-31" value="Nome" style="text;html=1;strokeColor=none;fillColor=none;align=left;verticalAlign=top;spacingLeft=4;spacingRight=4;whiteSpace=wrap;overflow=hidden;rotatable=0;points=[[0,0.5],[1,0.5]];portConstraint=eastwest;" parent="17acba5748e5396b-30" vertex="1">
          <mxGeometry y="26" width="160" height="26" as="geometry" />
        </mxCell>
        <mxCell id="17acba5748e5396b-32" value="CRM" style="text;html=1;strokeColor=none;fillColor=none;align=left;verticalAlign=top;spacingLeft=4;spacingRight=4;whiteSpace=wrap;overflow=hidden;rotatable=0;points=[[0,0.5],[1,0.5]];portConstraint=eastwest;" parent="17acba5748e5396b-30" vertex="1">
          <mxGeometry y="52" width="160" height="26" as="geometry" />
        </mxCell>
        <mxCell id="17acba5748e5396b-33" value="Profissão" style="text;html=1;strokeColor=none;fillColor=none;align=left;verticalAlign=top;spacingLeft=4;spacingRight=4;whiteSpace=wrap;overflow=hidden;rotatable=0;points=[[0,0.5],[1,0.5]];portConstraint=eastwest;" parent="17acba5748e5396b-30" vertex="1">
          <mxGeometry y="78" width="160" height="26" as="geometry" />
        </mxCell>
        <mxCell id="5d2195bd80daf111-21" style="edgeStyle=orthogonalEdgeStyle;rounded=0;html=1;labelBackgroundColor=none;startFill=0;endArrow=open;endFill=0;endSize=10;fontFamily=Verdana;fontSize=10;dashed=1;" parent="1" source="5d2195bd80daf111-18" target="17acba5748e5396b-20" edge="1">
          <mxGeometry relative="1" as="geometry" />
        </mxCell>
        <mxCell id="5d2195bd80daf111-22" style="edgeStyle=orthogonalEdgeStyle;rounded=0;html=1;exitX=1;exitY=0.75;dashed=1;labelBackgroundColor=none;startFill=0;endArrow=open;endFill=0;endSize=10;fontFamily=Verdana;fontSize=10;" parent="1" source="5d2195bd80daf111-18" target="17acba5748e5396b-30" edge="1">
          <mxGeometry relative="1" as="geometry">
            <Array as="points">
              <mxPoint x="530" y="192" />
              <mxPoint x="530" y="142" />
            </Array>
          </mxGeometry>
        </mxCell>
        <mxCell id="5d2195bd80daf111-18" value="&lt;p style=&quot;margin:0px;margin-top:4px;text-align:center;&quot;&gt;&lt;i&gt;&amp;lt;&amp;lt;Interface&amp;gt;&amp;gt;&lt;/i&gt;&lt;br&gt;&lt;b&gt;Base&lt;/b&gt;&lt;/p&gt;&lt;hr size=&quot;1&quot;&gt;&lt;p style=&quot;margin:0px;margin-left:4px;&quot;&gt;+ field1: web&lt;br&gt;&lt;br&gt;&lt;/p&gt;&lt;p style=&quot;margin:0px;margin-left:4px;&quot;&gt;+ method1(Inicio):&amp;nbsp;&lt;br&gt;&lt;br&gt;&lt;/p&gt;" style="verticalAlign=top;align=left;overflow=fill;fontSize=12;fontFamily=Helvetica;html=1;rounded=0;shadow=0;comic=0;labelBackgroundColor=none;strokeWidth=1" parent="1" vertex="1">
          <mxGeometry x="70" y="100" width="190" height="140" as="geometry" />
        </mxCell>
        <mxCell id="5d2195bd80daf111-23" style="edgeStyle=orthogonalEdgeStyle;rounded=0;html=1;dashed=1;labelBackgroundColor=none;startFill=0;endArrow=open;endFill=0;endSize=10;fontFamily=Verdana;fontSize=10;" parent="1" source="5d2195bd80daf111-19" target="17acba5748e5396b-20" edge="1">
          <mxGeometry relative="1" as="geometry">
            <Array as="points">
              <mxPoint x="320" y="290" />
              <mxPoint x="320" y="120" />
            </Array>
          </mxGeometry>
        </mxCell>
        <mxCell id="5d2195bd80daf111-24" style="edgeStyle=orthogonalEdgeStyle;rounded=0;html=1;dashed=1;labelBackgroundColor=none;startFill=0;endArrow=open;endFill=0;endSize=10;fontFamily=Verdana;fontSize=10;" parent="1" source="5d2195bd80daf111-19" target="17acba5748e5396b-30" edge="1">
          <mxGeometry relative="1" as="geometry">
            <Array as="points">
              <mxPoint x="350" y="310" />
              <mxPoint x="350" y="210" />
              <mxPoint x="550" y="210" />
              <mxPoint x="550" y="160" />
            </Array>
          </mxGeometry>
        </mxCell>
        <mxCell id="5d2195bd80daf111-19" value="&lt;p style=&quot;margin:0px;margin-top:4px;text-align:center;&quot;&gt;&lt;i&gt;&amp;lt;&amp;lt;Interface&amp;gt;&amp;gt;&lt;/i&gt;&lt;br&gt;&lt;b&gt;Inicio&lt;/b&gt;&lt;/p&gt;&lt;hr size=&quot;1&quot;&gt;&lt;p style=&quot;margin:0px;margin-left:4px;&quot;&gt;+ field1: web&lt;br&gt;&lt;br&gt;&lt;/p&gt;&lt;hr size=&quot;1&quot;&gt;&lt;p style=&quot;margin:0px;margin-left:4px;&quot;&gt;+ method1(Cadastrar):&lt;br&gt;+ method2(Listar):&lt;/p&gt;" style="verticalAlign=top;align=left;overflow=fill;fontSize=12;fontFamily=Helvetica;html=1;rounded=0;shadow=0;comic=0;labelBackgroundColor=none;strokeWidth=1" parent="1" vertex="1">
          <mxGeometry x="60" y="270" width="190" height="140" as="geometry" />
        </mxCell>
        <mxCell id="5d2195bd80daf111-30" style="edgeStyle=orthogonalEdgeStyle;rounded=0;html=1;dashed=1;labelBackgroundColor=none;startFill=0;endArrow=open;endFill=0;endSize=10;fontFamily=Verdana;fontSize=10;exitX=0.5;exitY=0;exitDx=0;exitDy=0;" parent="1" source="5d2195bd80daf111-20" target="5d2195bd80daf111-19" edge="1">
          <mxGeometry relative="1" as="geometry">
            <Array as="points">
              <mxPoint x="290" y="450" />
              <mxPoint x="290" y="340" />
            </Array>
            <mxPoint x="350" y="642" as="targetPoint" />
          </mxGeometry>
        </mxCell>
        <mxCell id="5d2195bd80daf111-31" style="edgeStyle=orthogonalEdgeStyle;rounded=0;html=1;dashed=1;labelBackgroundColor=none;startFill=0;endArrow=open;endFill=0;endSize=10;fontFamily=Verdana;fontSize=10;entryX=0.411;entryY=1.113;entryDx=0;entryDy=0;entryPerimeter=0;" parent="1" edge="1">
          <mxGeometry relative="1" as="geometry">
            <Array as="points">
              <mxPoint x="646" y="541.06" />
            </Array>
            <mxPoint x="250" y="541.0600000000002" as="sourcePoint" />
            <mxPoint x="645.7599999999998" y="429.9979999999999" as="targetPoint" />
          </mxGeometry>
        </mxCell>
        <mxCell id="5d2195bd80daf111-20" value="&lt;p style=&quot;margin:0px;margin-top:4px;text-align:center;&quot;&gt;&lt;i&gt;&amp;lt;&amp;lt;Interface&amp;gt;&amp;gt;&lt;/i&gt;&lt;br&gt;&lt;b&gt;Cadastro&lt;/b&gt;&lt;/p&gt;&lt;hr size=&quot;1&quot;&gt;&lt;p style=&quot;margin:0px;margin-left:4px;&quot;&gt;+ field1: web&lt;br&gt;&lt;br&gt;&lt;/p&gt;&lt;hr size=&quot;1&quot;&gt;&lt;p style=&quot;margin:0px;margin-left:4px;&quot;&gt;+ method1(Cadastrar):&lt;br&gt;&lt;/p&gt;" style="verticalAlign=top;align=left;overflow=fill;fontSize=12;fontFamily=Helvetica;html=1;rounded=0;shadow=0;comic=0;labelBackgroundColor=none;strokeWidth=1" parent="1" vertex="1">
          <mxGeometry x="60" y="450" width="190" height="140" as="geometry" />
        </mxCell>
        <mxCell id="KYXc-6XVnCU_aNFc-kIN-5" value="" style="endArrow=classic;html=1;rounded=0;" edge="1" parent="1">
          <mxGeometry width="50" height="50" relative="1" as="geometry">
            <mxPoint x="635" y="264" as="sourcePoint" />
            <mxPoint x="635" y="200" as="targetPoint" />
          </mxGeometry>
        </mxCell>
        <mxCell id="KYXc-6XVnCU_aNFc-kIN-8" style="edgeStyle=orthogonalEdgeStyle;rounded=0;html=1;dashed=1;labelBackgroundColor=none;startFill=0;endArrow=open;endFill=0;endSize=10;fontFamily=Verdana;fontSize=10;entryX=0.022;entryY=1.283;entryDx=0;entryDy=0;entryPerimeter=0;exitX=0.997;exitY=0.682;exitDx=0;exitDy=0;exitPerimeter=0;" edge="1" parent="1" source="5d2195bd80daf111-20" target="17acba5748e5396b-33">
          <mxGeometry relative="1" as="geometry">
            <Array as="points">
              <mxPoint x="249" y="551" />
              <mxPoint x="470" y="551" />
              <mxPoint x="470" y="198" />
            </Array>
            <mxPoint x="260" y="551.0600000000002" as="sourcePoint" />
            <mxPoint x="655.7599999999998" y="439.9979999999999" as="targetPoint" />
          </mxGeometry>
        </mxCell>
      </root>
    </mxGraphModel>
  </diagram>
</mxfile>
